<svg width="20" height="20" viewBox="0 0 20 20" fill="none" xmlns="http://www.w3.org/2000/svg">
<path d="M10.0004 2C5.58148 2 2 5.58148 2 9.99958C2 14.4185 5.58148 18 10.0004 18C14.4177 18 18 14.4185 18 9.99958C18 5.58148 14.4177 2 10.0004 2ZM10.747 4.88818C11.527 4.88818 11.7562 5.34066 11.7562 5.85813C11.7562 6.50393 11.2395 7.1014 10.3571 7.1014C9.61877 7.1014 9.26712 6.73059 9.28879 6.11645C9.28879 5.59898 9.72126 4.88818 10.747 4.88818ZM8.74882 14.791C8.21551 14.791 7.82636 14.4669 8.19884 13.0461L8.80965 10.5254C8.91547 10.1221 8.93297 9.96042 8.80965 9.96042C8.65049 9.96042 7.95802 10.2387 7.54971 10.5137L7.28389 10.0779C8.57966 8.99547 10.0696 8.3605 10.707 8.3605C11.2404 8.3605 11.3287 8.99047 11.0629 9.96042L10.3629 12.6103C10.2387 13.0786 10.2921 13.2402 10.4162 13.2402C10.5762 13.2402 11.0995 13.0469 11.6145 12.6411L11.9161 13.0461C10.6554 14.306 9.28129 14.791 8.74882 14.791Z" fill="#ADBFDF"/>
</svg>
