<svg width="20" height="20" viewBox="0 0 20 20" fill="none" xmlns="http://www.w3.org/2000/svg">
<circle cx="10" cy="10" r="7" fill="white"/>
<path d="M10.0005 6.20849e-09C4.47685 6.20849e-09 -1.14236e-08 4.47685 -1.14236e-08 9.99948C-1.14236e-08 15.5231 4.47685 20 10.0005 20C15.5221 20 20 15.5231 20 9.99948C20 4.47685 15.5221 6.20849e-09 10.0005 6.20849e-09ZM10.9338 3.61023C11.9088 3.61023 12.1952 4.17582 12.1952 4.82267C12.1952 5.62992 11.5494 6.37675 10.4463 6.37675C9.52346 6.37675 9.0839 5.91323 9.11098 5.14557C9.11098 4.49872 9.65158 3.61023 10.9338 3.61023ZM8.43602 15.9888C7.76939 15.9888 7.28295 15.5836 7.74855 13.8076L8.51206 10.6567C8.64434 10.1526 8.66621 9.95052 8.51206 9.95052C8.31311 9.95052 7.44753 10.2984 6.93714 10.6422L6.60486 10.0974C8.22457 8.74434 10.087 7.95063 10.8838 7.95063C11.5504 7.95063 11.6609 8.73809 11.3286 9.95052L10.4536 13.2629C10.2984 13.8482 10.3651 14.0503 10.5203 14.0503C10.7203 14.0503 11.3744 13.8087 12.0181 13.3014L12.3952 13.8076C10.8192 15.3825 9.10161 15.9888 8.43602 15.9888Z" fill="#ADBFDF"/>
</svg>
